<?xml version="1.0" encoding="UTF-8"?>
<svg viewBox="0 0 169 169" version="1.1" xmlns="http://www.w3.org/2000/svg" xmlns:xlink="http://www.w3.org/1999/xlink">
    <defs>
        <linearGradient x1="33.8272004%" y1="27.8799926%" x2="83.2424186%" y2="84.1184357%" id="linearGradient-1">
            <stop stop-color="#ABCBFF" offset="0%"></stop>
            <stop stop-color="#3964CB" offset="100%"></stop>
        </linearGradient>
    </defs>
    <g stroke="none" stroke-width="1" fill="none" fill-rule="evenodd">
        <circle fill="url(#linearGradient-1)" cx="84.5" cy="84.5" r="84.5"></circle>
        <path d="M68.126,100.08 L68.126,134 L62.72,134 L62.72,59.005 L81.853,59.005 C90.50971,59.005 96.9756453,60.6744833 101.251,64.0135 C105.526355,67.3525167 107.664,72.2549677 107.664,78.721 C107.664,81.5830143 107.169338,84.1976548 106.18,86.565 C105.190662,88.9323452 103.768509,91.0081577 101.9135,92.7925 C100.058491,94.5768423 97.8236797,96.0431609 95.209,97.1915 C92.5943203,98.3398391 89.6440164,99.0906649 86.358,99.444 C87.2060042,99.9740027 87.9656633,100.680662 88.637,101.564 L114.448,134 L109.731,134 C109.165664,134 108.679835,133.894001 108.2735,133.682 C107.867165,133.469999 107.469669,133.116669 107.081,132.622 L83.072,102.2 C82.4713303,101.422663 81.8265034,100.875002 81.1375,100.557 C80.4484966,100.238998 79.3796739,100.08 77.931,100.08 L68.126,100.08 Z M68.126,96.052 L81.164,96.052 C84.4853499,96.052 87.4621535,95.654504 90.0945,94.8595 C92.7268465,94.064496 94.9528242,92.9250074 96.7725,91.441 C98.5921758,89.9569926 99.9789952,88.1726771 100.933,86.088 C101.887005,84.0033229 102.364,81.6536797 102.364,79.039 C102.364,73.70364 100.615017,69.7463462 97.117,67.167 C93.6189825,64.5876538 88.5310334,63.298 81.853,63.298 L68.126,63.298 L68.126,96.052 Z" id="R" fill="#FFFFFF" fill-rule="nonzero"></path>
        <path d="M136.89133,47.05983 C141.236975,48.8663233 144.093461,53.1387741 144.093461,57.8751863 C144.093461,111.90333 110.914734,142.00575 89.9921231,150.721597 C87.1110799,151.917978 83.864065,151.917978 80.9832602,150.721597 C54.8602756,139.833046 26.9062407,106.336985 26.9062407,57.8751863 C26.9062407,53.1387741 29.7627269,48.8663233 34.1326906,47.05983 L81.0075788,27.5286266 C82.2015762,27.033194 84.2195463,26.6314596 85.5120103,26.6314596 C86.8047128,26.6314596 88.8224444,27.033194 90.0164418,27.5286266 L136.89133,47.05983 Z M87.0135669,143.519466 C110.890415,134.04688 136.28098,100.843834 136.256661,57.8751863 C136.256661,56.288276 135.328738,54.8723114 133.863898,54.2619613 L86.9890099,34.7307579 C86.0124497,34.3156721 84.9138195,34.3399908 83.986135,34.7307579 L37.1112468,54.2619613 C35.6709636,54.8723114 34.7187221,56.288276 34.7187221,57.8751863 C34.7187221,100.843834 60.1092865,134.04688 84.0106921,143.519466 C84.9872523,143.910233 86.0613254,143.910233 87.0135669,143.519466 Z" id="s" fill="#FFFFFF" fill-rule="nonzero"></path>
    </g>
</svg>