<?xml version="1.0" encoding="UTF-8"?>
<svg viewBox="0 0 30 32" version="1.1" xmlns="http://www.w3.org/2000/svg" xmlns:xlink="http://www.w3.org/1999/xlink">
    <g fill="#FFFFFF" fill-rule="nonzero">
        <path d="M9.95900238,17.7183463 L9.95900238,26.9983463 L8.48000238,26.9983463 L8.48000238,6.48084633 L13.7145024,6.48084633 C16.0828476,6.48084633 17.8518299,6.93759177 19.0215024,7.85109633 C20.1911749,8.7646009 20.7760024,10.1058375 20.7760024,11.8748463 C20.7760024,12.6578502 20.6406704,13.3731764 20.3700024,14.0208463 C20.0993344,14.6685162 19.7102549,15.2364272 19.2027524,15.7245963 C18.6952498,16.2127654 18.0838393,16.6139281 17.3685024,16.9280963 C16.6531655,17.2422646 15.8460069,17.4476792 14.9470024,17.5443463 C15.1790035,17.6893471 15.3868348,17.8826785 15.5705024,18.1243463 L22.6320024,26.9983463 L21.3415024,26.9983463 C21.1868349,26.9983463 21.0539196,26.9693466 20.9427524,26.9113463 C20.8315852,26.853346 20.7228362,26.7566803 20.6165024,26.6213463 L14.0480024,18.2983463 C13.8836682,18.0856786 13.7072533,17.9358468 13.5187524,17.8488463 C13.3302514,17.7618459 13.0378377,17.7183463 12.6415024,17.7183463 L9.95900238,17.7183463 Z M9.95900238,16.6163463 L13.5260024,16.6163463 C14.4346736,16.6163463 15.2490821,16.5075974 15.9692524,16.2900963 C16.6894227,16.0725952 17.2984166,15.7608484 17.7962524,15.3548463 C18.2940882,14.9488443 18.6735011,14.4606825 18.9345024,13.8903463 C19.1955037,13.3200101 19.3260024,12.6771832 19.3260024,11.9618463 C19.3260024,10.5021724 18.8475072,9.41951653 17.8905024,8.71384633 C16.9334976,8.00817614 15.5415115,7.65534633 13.7145024,7.65534633 L9.95900238,7.65534633 L9.95900238,16.6163463 Z" id="R"></path>
        <path d="M28.1561829,5.22966282 C29.268668,5.6921251 29.9999285,6.78587249 29.9999285,7.99839402 C29.9999285,21.8295988 21.5061743,29.5358183 16.1499859,31.7670751 C15.4124388,32.0733488 14.581203,32.0733488 13.843717,31.7670751 C7.15623294,28.9796062 0,20.4046144 0,7.99839402 C0,6.78587249 0.731260464,5.6921251 1.84997118,5.22966282 L13.8499426,0.229674745 C14.1556059,0.102843993 14.6722062,0 15.003077,0 C15.3340089,0 15.8505481,0.102843993 16.1562115,0.229674745 L28.1561829,5.22966282 Z M15.3874755,29.9233295 C21.4999487,27.4983475 27.9999332,18.9983678 27.9937077,7.99839402 C27.9937077,7.59214498 27.7561594,7.22965806 27.3811603,7.07340843 L15.3811889,2.07342035 C15.1311895,1.9671584 14.8499402,1.97338397 14.612453,2.07342035 L2.61248156,7.07340843 C2.24376906,7.22965806 1.99999523,7.59214498 1.99999523,7.99839402 C1.99999523,18.9983678 8.49997973,27.4983475 14.6187396,29.9233295 C14.868739,30.0233659 15.1437017,30.0233659 15.3874755,29.9233295 Z" id="s"></path>
    </g>
</svg>